<?xml version="1.0" encoding="UTF-8"?>
<!DOCTYPE svg PUBLIC "-//W3C//DTD SVG 1.1//EN" "http://www.w3.org/Graphics/SVG/1.1/DTD/svg11.dtd">
<svg xmlns="http://www.w3.org/2000/svg" version="1.1" width="1050px" height="750px" style="shape-rendering:geometricPrecision; text-rendering:geometricPrecision; image-rendering:optimizeQuality; fill-rule:evenodd; clip-rule:evenodd" xmlns:xlink="http://www.w3.org/1999/xlink">
<g><path style="opacity:1" fill="#fe0000" d="M -0.5,-0.5 C 349.5,-0.5 699.5,-0.5 1049.5,-0.5C 1049.5,249.5 1049.5,499.5 1049.5,749.5C 699.5,749.5 349.5,749.5 -0.5,749.5C -0.5,499.5 -0.5,249.5 -0.5,-0.5 Z"/></g>
<g><path style="opacity:1" fill="#030000" d="M 504.5,181.5 C 500.5,182.167 496.5,182.833 492.5,183.5C 497.57,185.754 503.236,188.254 509.5,191C 510.685,192.353 512.019,193.52 513.5,194.5C 511.322,195.657 509.322,196.99 507.5,198.5C 513.195,204.526 518.861,210.526 524.5,216.5C 529.791,210.708 535.291,205.041 541,199.5C 541.688,198.668 541.521,198.002 540.5,197.5C 534.392,196.13 534.058,193.964 539.5,191C 545.609,187.861 551.276,185.361 556.5,183.5C 552.5,182.833 548.5,182.167 544.5,181.5C 549.887,174.953 556.554,170.12 564.5,167C 559.833,163.667 555.167,160.333 550.5,157C 565.356,155.369 579.689,151.703 593.5,146C 599.225,145.283 604.891,145.616 610.5,147C 613.807,147.653 616.473,149.319 618.5,152C 623.167,152.333 627.833,152.667 632.5,153C 638.543,154.697 640.71,158.531 639,164.5C 636.293,160.965 632.793,159.798 628.5,161C 624.718,162.954 621.385,165.454 618.5,168.5C 632.446,172.464 644.113,168.631 653.5,157C 658.667,155.5 660.5,157.333 659,162.5C 653.946,169.278 647.112,172.778 638.5,173C 630.5,173.333 622.5,173.667 614.5,174C 621.371,179.495 628.704,179.995 636.5,175.5C 638.872,176.363 638.872,177.529 636.5,179C 634.5,180 632.5,181 630.5,182C 617.58,184.397 604.913,187.73 592.5,192C 580.279,198.554 571.113,208.054 565,220.5C 564.171,227.234 564.504,233.901 566,240.5C 573.804,251.35 582.804,252.35 593,243.5C 598.467,234.119 598.967,224.453 594.5,214.5C 594.57,213.228 594.903,212.062 595.5,211C 611.441,202.53 627.774,194.863 644.5,188C 648.616,186.893 651.616,188.226 653.5,192C 672.034,190.317 687.867,182.817 701,169.5C 705.5,163.667 710,157.833 714.5,152C 719.423,151.045 722.923,152.879 725,157.5C 727.246,164.116 726.579,170.45 723,176.5C 714.773,188.711 703.606,197.211 689.5,202C 679.549,205.937 669.216,208.271 658.5,209C 653.786,214.674 654.786,219.007 661.5,222C 681.538,224.94 698.871,219.607 713.5,206C 720.203,203.185 724.203,205.351 725.5,212.5C 723.752,222.75 718.085,229.917 708.5,234C 703.625,235.802 698.625,237.135 693.5,238C 680.457,238.593 667.457,238.093 654.5,236.5C 653.971,240.192 654.971,243.358 657.5,246C 678.06,260.594 698.06,259.927 717.5,244C 724.43,243.966 726.93,247.466 725,254.5C 717.59,270.512 705.09,276.679 687.5,273C 683.58,271.687 679.58,270.687 675.5,270C 669.594,267.212 663.594,264.712 657.5,262.5C 654.404,262.429 652.738,263.929 652.5,267C 653.03,269.207 654.03,271.207 655.5,273C 664.048,278.775 673.048,283.775 682.5,288C 686.591,289.231 690.758,290.065 695,290.5C 702.439,289.349 709.606,287.349 716.5,284.5C 724.113,285.043 726.613,289.043 724,296.5C 721.503,301.645 717.337,304.478 711.5,305C 691.975,305.714 674.142,300.548 658,289.5C 656.053,290.044 655.22,291.377 655.5,293.5C 656.79,297.31 659.123,300.477 662.5,303C 669.643,309.073 677.31,314.406 685.5,319C 695.251,322.568 705.251,323.402 715.5,321.5C 720.831,321.339 723.831,323.839 724.5,329C 724.369,334.933 721.703,339.267 716.5,342C 711.572,343.418 706.572,343.751 701.5,343C 693.493,340.498 685.826,337.164 678.5,333C 671.833,328.333 665.167,323.667 658.5,319C 654.451,317.516 652.451,318.849 652.5,323C 652.673,326.872 653.84,330.372 656,333.5C 663.182,341.347 671.015,348.514 679.5,355C 693.167,362.95 707.5,364.616 722.5,360C 724.594,361.255 725.594,363.088 725.5,365.5C 724.587,376.216 718.753,380.883 708,379.5C 695.104,378.535 683.604,374.035 673.5,366C 666.167,360 659.5,353.333 653.5,346C 652.207,345.51 650.873,345.343 649.5,345.5C 649.412,350.483 650.579,355.149 653,359.5C 659.699,370.204 667.866,379.704 677.5,388C 689.949,397.28 703.949,400.946 719.5,399C 723.828,401.89 724.661,405.723 722,410.5C 714.16,418.659 704.66,421.492 693.5,419C 689.714,417.607 686.048,415.941 682.5,414C 665.706,397.384 649.373,380.384 633.5,363C 630.975,362.104 628.808,362.604 627,364.5C 624.934,375.536 628.1,384.702 636.5,392C 641.787,395.56 647.287,398.726 653,401.5C 655.506,406.659 654.006,410.159 648.5,412C 641.584,412.882 635.584,410.882 630.5,406C 620.271,396.378 614.104,384.545 612,370.5C 608.423,364.435 604.423,364.101 600,369.5C 600.062,382.29 605.395,392.29 616,399.5C 616.711,401.367 616.211,402.867 614.5,404C 611.5,404.667 608.5,404.667 605.5,404C 595.071,396.679 587.904,386.846 584,374.5C 581.333,370.5 578.667,370.5 576,374.5C 578.211,396.388 589.378,411.888 609.5,421C 617.005,423.582 624.505,426.082 632,428.5C 632.667,429.5 632.667,430.5 632,431.5C 628.318,435.015 624.818,438.682 621.5,442.5C 636.846,447.213 652.346,451.546 668,455.5C 675.569,450.63 683.069,445.63 690.5,440.5C 692.253,437.995 693.753,435.329 695,432.5C 698.95,429.929 702.95,429.929 707,432.5C 712.424,429.576 717.59,429.909 722.5,433.5C 719.788,434.228 717.121,435.061 714.5,436C 711.715,439.604 708.715,442.938 705.5,446C 703.466,447.006 701.3,447.506 699,447.5C 696.46,447.104 693.96,446.937 691.5,447C 687.534,449.964 683.867,453.297 680.5,457C 688.833,457.667 697.167,457.667 705.5,457C 712.942,448.834 720.609,448.501 728.5,456C 733.11,455.968 736.444,457.968 738.5,462C 736.384,461.718 734.217,461.218 732,460.5C 728.601,462.113 725.101,463.613 721.5,465C 719.667,465.167 717.833,465.333 716,465.5C 711.476,465.055 707.142,464.055 703,462.5C 695.179,463.175 687.346,463.675 679.5,464C 683.332,466.75 687.332,469.25 691.5,471.5C 706.83,468.302 715.33,474.635 717,490.5C 717.667,492.833 717.667,495.167 717,497.5C 715.6,494.098 713.433,491.264 710.5,489C 705.386,488.891 700.386,488.224 695.5,487C 693.13,483.892 691.13,480.559 689.5,477C 682.607,473.97 675.773,470.803 669,467.5C 663.5,469.333 658,471.167 652.5,473C 651.299,476.21 649.299,478.877 646.5,481C 640.581,482.196 634.581,482.862 628.5,483C 625.906,484.339 624.406,486.506 624,489.5C 622.627,487.305 622.294,484.971 623,482.5C 626.136,478.357 629.302,474.191 632.5,470C 634.199,469.042 636.033,468.542 638,468.5C 640.829,469.203 643.662,469.37 646.5,469C 650.5,467 654.5,465 658.5,463C 643.605,458.74 628.605,454.907 613.5,451.5C 608.996,453.932 604.996,457.099 601.5,461C 599.635,462.301 597.635,462.635 595.5,462C 587.125,448.748 578.625,435.582 570,422.5C 566.833,419.333 563.667,416.167 560.5,413C 552.515,408.157 547.015,409.99 544,418.5C 543.452,428.199 545.785,437.199 551,445.5C 558.987,458.488 569.82,468.321 583.5,475C 585.909,475.935 588.409,476.435 591,476.5C 596.646,474.852 602.146,475.186 607.5,477.5C 608.553,478.438 609.22,479.605 609.5,481C 608.624,483.879 606.958,486.213 604.5,488C 596.219,491.969 587.886,492.303 579.5,489C 575.5,485.667 571.5,482.333 567.5,479C 563.188,478.983 561.355,481.15 562,485.5C 570.304,498.467 582.138,505.633 597.5,507C 601.106,508.076 602.106,510.243 600.5,513.5C 598.972,514.861 597.305,516.028 595.5,517C 585.543,520.188 576.543,518.521 568.5,512C 565.5,509 562.5,506 559.5,503C 557.655,501.872 555.655,501.372 553.5,501.5C 554.373,520.039 564.039,530.039 582.5,531.5C 583.977,536.383 582.311,539.883 577.5,542C 569.577,545.099 562.743,543.599 557,537.5C 552.709,531.085 548.542,524.585 544.5,518C 542.633,517.289 541.133,517.789 540,519.5C 536.965,529.031 538.631,537.698 545,545.5C 548.682,549.015 552.182,552.682 555.5,556.5C 545.649,572.216 535.316,587.549 524.5,602.5C 513.684,587.549 503.351,572.216 493.5,556.5C 500.005,550.833 505.172,544.167 509,536.5C 510.949,530.807 510.949,525.14 509,519.5C 507.867,517.789 506.367,517.289 504.5,518C 500.458,524.585 496.291,531.085 492,537.5C 484.8,544.37 476.967,545.203 468.5,540C 465.725,537.62 465.058,534.787 466.5,531.5C 484.635,530.2 494.135,520.533 495,502.5C 493.132,501.328 491.298,501.495 489.5,503C 480.995,514.589 469.662,519.589 455.5,518C 451.855,516.683 449.189,514.35 447.5,511C 448.661,508.407 450.661,506.741 453.5,506C 467.344,505.16 478.178,498.993 486,487.5C 488.712,482.244 487.212,479.41 481.5,479C 477.5,482.333 473.5,485.667 469.5,489C 461.041,492.491 452.708,492.157 444.5,488C 438.105,483.644 438.105,479.644 444.5,476C 448.849,475.464 453.182,475.631 457.5,476.5C 480.619,469.55 496.119,454.55 504,431.5C 506.592,424.483 505.759,417.983 501.5,412C 497.003,409.879 492.67,410.212 488.5,413C 485.333,416.167 482.167,419.333 479,422.5C 470.375,435.582 461.875,448.748 453.5,462C 451.365,462.635 449.365,462.301 447.5,461C 443.895,456.963 439.728,453.797 435,451.5C 420.053,454.945 405.22,458.778 390.5,463C 394.469,464.984 398.469,466.984 402.5,469C 405.338,469.37 408.171,469.203 411,468.5C 412.967,468.542 414.801,469.042 416.5,470C 419.698,474.191 422.864,478.357 426,482.5C 426.706,484.971 426.373,487.305 425,489.5C 424.55,487.481 423.717,485.648 422.5,484C 416.581,482.804 410.581,482.138 404.5,482C 400.966,479.967 398.3,477.134 396.5,473.5C 390.833,471.5 385.167,469.5 379.5,467.5C 372.955,470.94 366.288,474.106 359.5,477C 357.87,480.559 355.87,483.892 353.5,487C 348.227,488.112 342.894,488.945 337.5,489.5C 334.65,491.865 332.816,494.865 332,498.5C 331.239,488.783 334.072,480.283 340.5,473C 341.672,472.581 342.672,471.915 343.5,471C 348.535,470.582 353.535,470.582 358.5,471C 362.336,468.916 366.003,466.583 369.5,464C 361.485,463.699 353.485,463.199 345.5,462.5C 341.429,464.352 337.096,465.352 332.5,465.5C 330.5,465.333 328.5,465.167 326.5,465C 323.351,463.341 320.184,461.841 317,460.5C 315.016,460.741 313.183,461.408 311.5,462.5C 311.167,462.333 310.833,462.167 310.5,462C 312.556,457.968 315.89,455.968 320.5,456C 328.391,448.501 336.058,448.834 343.5,457C 352.159,457.905 360.826,458.238 369.5,458C 365.8,453.965 361.8,450.298 357.5,447C 355.04,446.937 352.54,447.104 350,447.5C 347.7,447.506 345.534,447.006 343.5,446C 340.285,442.938 337.285,439.604 334.5,436C 324.088,434.561 323.921,432.728 334,430.5C 336.767,430.755 339.433,431.422 342,432.5C 346.05,429.929 350.05,429.929 354,432.5C 355.247,435.329 356.747,437.995 358.5,440.5C 365.931,445.63 373.431,450.63 381,455.5C 396.444,450.931 411.944,446.598 427.5,442.5C 424.182,438.682 420.682,435.015 417,431.5C 416.333,430.5 416.333,429.5 417,428.5C 424.373,425.911 431.873,423.411 439.5,421C 459.622,411.888 470.789,396.388 473,374.5C 470.333,370.5 467.667,370.5 465,374.5C 461.096,386.846 453.929,396.679 443.5,404C 440.5,404.667 437.5,404.667 434.5,404C 432.789,402.867 432.289,401.367 433,399.5C 443.605,392.29 448.938,382.29 449,369.5C 444.577,364.101 440.577,364.435 437,370.5C 434.602,384.408 428.435,396.241 418.5,406C 413.416,410.882 407.416,412.882 400.5,412C 394.994,410.159 393.494,406.659 396,401.5C 401.704,398.708 407.204,395.541 412.5,392C 420.9,384.702 424.066,375.536 422,364.5C 420.192,362.604 418.025,362.104 415.5,363C 399.627,380.384 383.294,397.384 366.5,414C 355.828,420.467 344.828,421.134 333.5,416C 327.139,413.11 324.639,408.277 326,401.5C 326.833,400.667 327.667,399.833 328.5,399C 344.314,400.797 358.647,397.13 371.5,388C 382.357,378.766 391.191,367.933 398,355.5C 399.043,352.243 399.543,348.91 399.5,345.5C 398.127,345.343 396.793,345.51 395.5,346C 384.176,361.332 369.51,371.999 351.5,378C 345.224,379.424 338.891,379.758 332.5,379C 325.852,375.539 323.019,370.039 324,362.5C 325.117,360.876 326.617,359.876 328.5,359.5C 342.846,364.332 356.513,362.832 369.5,355C 377.985,348.514 385.818,341.347 393,333.5C 396.167,328.981 397.001,324.148 395.5,319C 393.833,318.333 392.167,318.333 390.5,319C 378.301,329.18 364.635,336.846 349.5,342C 340.912,345.236 333.412,343.736 327,337.5C 323.196,331.783 323.696,326.616 328.5,322C 336.809,322.454 345.142,322.454 353.5,322C 368.819,316.919 381.985,308.419 393,296.5C 393.667,294.5 393.667,292.5 393,290.5C 392.439,289.978 391.772,289.645 391,289.5C 374.162,300.667 355.662,305.834 335.5,305C 324.692,301.403 322.025,294.736 327.5,285C 328.833,284.833 330.167,284.667 331.5,284.5C 336.437,285.134 341.104,286.634 345.5,289C 356.113,290.791 366.113,289.124 375.5,284C 381.751,280.292 387.917,276.459 394,272.5C 396.964,269.395 397.13,266.228 394.5,263C 393.5,262.833 392.5,262.667 391.5,262.5C 382.765,266.357 373.765,269.523 364.5,272C 345.742,277.693 332.242,271.86 324,254.5C 321.681,247.185 324.181,243.685 331.5,244C 350.924,259.967 370.924,260.634 391.5,246C 394.029,243.358 395.029,240.192 394.5,236.5C 385.188,237.385 375.855,238.051 366.5,238.5C 351.382,239.852 338.549,235.185 328,224.5C 326.002,220.671 324.502,216.671 323.5,212.5C 324.589,204.906 328.589,202.739 335.5,206C 351.813,221.287 370.646,225.787 392,219.5C 394.364,215.526 393.864,212.026 390.5,209C 367.111,207.386 346.945,198.553 330,182.5C 323.647,175.127 321.647,166.794 324,157.5C 326.077,152.879 329.577,151.045 334.5,152C 339.593,158.849 344.926,165.516 350.5,172C 361.87,182.935 375.37,189.769 391,192.5C 392.5,192.333 394,192.167 395.5,192C 397.384,188.226 400.384,186.893 404.5,188C 421.226,194.863 437.559,202.53 453.5,211C 454.577,215.578 454.077,220.078 452,224.5C 451.039,231.291 452.372,237.624 456,243.5C 465.034,251.778 473.7,251.445 482,242.5C 486.414,230.74 485.081,219.74 478,209.5C 469.32,198.413 458.154,191.246 444.5,188C 433.453,186.129 422.786,183.129 412.5,179C 410.441,177.815 410.274,176.648 412,175.5C 418.974,179.325 425.808,179.325 432.5,175.5C 433.289,175.217 433.956,174.717 434.5,174C 427.842,173.5 421.175,173.334 414.5,173.5C 407.398,173.225 400.731,171.391 394.5,168C 390.529,165.112 389.196,161.445 390.5,157C 392.167,156.333 393.833,156.333 395.5,157C 404.738,168.984 416.405,172.818 430.5,168.5C 426.296,163.433 420.962,160.933 414.5,161C 412.714,161.785 411.214,162.951 410,164.5C 408.222,158.944 410.055,155.11 415.5,153C 419.868,152.291 424.201,152.458 428.5,153.5C 435.312,146.288 443.645,143.788 453.5,146C 467.984,151.698 482.984,155.364 498.5,157C 493.833,160.333 489.167,163.667 484.5,167C 492.446,170.12 499.113,174.953 504.5,181.5 Z"/></g>
<g><path style="opacity:1" fill="#f20000" d="M 444.5,158.5 C 448.514,158.334 452.514,158.501 456.5,159C 461.988,162.234 461.655,164.9 455.5,167C 452.167,167.667 448.833,167.667 445.5,167C 440.657,164.508 440.323,161.674 444.5,158.5 Z"/></g>
<g><path style="opacity:1" fill="#f00000" d="M 592.5,158.5 C 596.514,158.334 600.514,158.501 604.5,159C 608.595,162.005 608.261,164.671 603.5,167C 599.074,167.791 594.741,167.457 590.5,166C 587.759,162.711 588.425,160.211 592.5,158.5 Z"/></g>
<g><path style="opacity:1" fill="#990001" d="M 414.5,173.5 C 421.175,173.334 427.842,173.5 434.5,174C 433.956,174.717 433.289,175.217 432.5,175.5C 426.5,174.833 420.5,174.167 414.5,173.5 Z"/></g>
<g><path style="opacity:1" fill="#890000" d="M 504.5,181.5 C 505.043,181.56 505.376,181.893 505.5,182.5C 501.217,183.492 496.884,183.826 492.5,183.5C 496.5,182.833 500.5,182.167 504.5,181.5 Z"/></g>
<g><path style="opacity:1" fill="#840000" d="M 544.5,181.5 C 548.5,182.167 552.5,182.833 556.5,183.5C 552.116,183.826 547.783,183.492 543.5,182.5C 543.624,181.893 543.957,181.56 544.5,181.5 Z"/></g>
</svg>
