<?xml version="1.0" encoding="UTF-8"?>
<!DOCTYPE svg PUBLIC "-//W3C//DTD SVG 1.1//EN" "http://www.w3.org/Graphics/SVG/1.1/DTD/svg11.dtd">
<svg xmlns="http://www.w3.org/2000/svg" version="1.1" width="768px" height="582px" style="shape-rendering:geometricPrecision; text-rendering:geometricPrecision; image-rendering:optimizeQuality; fill-rule:evenodd; clip-rule:evenodd" xmlns:xlink="http://www.w3.org/1999/xlink">
<g><path style="opacity:1" fill="#c7102d" d="M -0.5,-0.5 C 82.5,-0.5 165.5,-0.5 248.5,-0.5C 248.5,82.5 248.5,165.5 248.5,248.5C 165.5,248.5 82.5,248.5 -0.5,248.5C -0.5,165.5 -0.5,82.5 -0.5,-0.5 Z"/></g>
<g><path style="opacity:1" fill="#fefefe" d="M 248.5,-0.5 C 276.167,-0.5 303.833,-0.5 331.5,-0.5C 331.5,82.5 331.5,165.5 331.5,248.5C 476.833,248.5 622.167,248.5 767.5,248.5C 767.5,276.167 767.5,303.833 767.5,331.5C 622.167,331.5 476.833,331.5 331.5,331.5C 331.5,414.5 331.5,497.5 331.5,580.5C 303.833,580.5 276.167,580.5 248.5,580.5C 248.5,497.5 248.5,414.5 248.5,331.5C 165.5,331.5 82.5,331.5 -0.5,331.5C -0.5,303.833 -0.5,276.167 -0.5,248.5C 82.5,248.5 165.5,248.5 248.5,248.5C 248.5,165.5 248.5,82.5 248.5,-0.5 Z"/></g>
<g><path style="opacity:1" fill="#c8102e" d="M 331.5,-0.5 C 476.833,-0.5 622.167,-0.5 767.5,-0.5C 767.5,82.5 767.5,165.5 767.5,248.5C 622.167,248.5 476.833,248.5 331.5,248.5C 331.5,165.5 331.5,82.5 331.5,-0.5 Z"/></g>
<g><path style="opacity:0.997" fill="#c8102e" d="M -0.5,331.5 C 82.5,331.5 165.5,331.5 248.5,331.5C 248.5,414.5 248.5,497.5 248.5,580.5C 248.5,580.833 248.5,581.167 248.5,581.5C 165.5,581.5 82.5,581.5 -0.5,581.5C -0.5,498.167 -0.5,414.833 -0.5,331.5 Z"/></g>
<g><path style="opacity:1" fill="#d1374c" d="M 767.5,331.5 C 767.5,331.833 767.5,332.167 767.5,332.5C 622.5,332.5 477.5,332.5 332.5,332.5C 332.5,415.5 332.5,498.5 332.5,581.5C 304.5,581.5 276.5,581.5 248.5,581.5C 248.5,581.167 248.5,580.833 248.5,580.5C 276.167,580.5 303.833,580.5 331.5,580.5C 331.5,497.5 331.5,414.5 331.5,331.5C 476.833,331.5 622.167,331.5 767.5,331.5 Z"/></g>
<g><path style="opacity:0.997" fill="#c8102e" d="M 767.5,332.5 C 767.5,415.5 767.5,498.5 767.5,581.5C 622.5,581.5 477.5,581.5 332.5,581.5C 332.5,498.5 332.5,415.5 332.5,332.5C 477.5,332.5 622.5,332.5 767.5,332.5 Z"/></g>
</svg>
