<?xml version="1.0" encoding="UTF-8"?>
<!DOCTYPE svg PUBLIC "-//W3C//DTD SVG 1.1//EN" "http://www.w3.org/Graphics/SVG/1.1/DTD/svg11.dtd">
<svg xmlns="http://www.w3.org/2000/svg" version="1.1" width="1200px" height="800px" style="shape-rendering:geometricPrecision; text-rendering:geometricPrecision; image-rendering:optimizeQuality; fill-rule:evenodd; clip-rule:evenodd" xmlns:xlink="http://www.w3.org/1999/xlink">
<g><path style="opacity:1" fill="#fefefe" d="M -0.5,-0.5 C 199.5,-0.5 399.5,-0.5 599.5,-0.5C 599.5,266.167 599.5,532.833 599.5,799.5C 399.5,799.5 199.5,799.5 -0.5,799.5C -0.5,532.833 -0.5,266.167 -0.5,-0.5 Z"/></g>
<g><path style="opacity:1" fill="#ce142a" d="M 599.5,-0.5 C 799.5,-0.5 999.5,-0.5 1199.5,-0.5C 1199.5,266.167 1199.5,532.833 1199.5,799.5C 999.5,799.5 799.5,799.5 599.5,799.5C 599.5,532.833 599.5,266.167 599.5,-0.5 Z"/></g>
<g><path style="opacity:1" fill="#cf172c" d="M 116.5,42.5 C 138.5,42.5 160.5,42.5 182.5,42.5C 182.5,61.1667 182.5,79.8333 182.5,98.5C 192.193,100.86 198.193,106.86 200.5,116.5C 219.167,116.5 237.833,116.5 256.5,116.5C 256.5,138.5 256.5,160.5 256.5,182.5C 237.833,182.5 219.167,182.5 200.5,182.5C 198.167,192.167 192.167,198.167 182.5,200.5C 182.5,219.167 182.5,237.833 182.5,256.5C 160.5,256.5 138.5,256.5 116.5,256.5C 116.5,237.833 116.5,219.167 116.5,200.5C 106.86,198.193 100.86,192.193 98.5,182.5C 79.8333,182.5 61.1667,182.5 42.5,182.5C 42.5,160.5 42.5,138.5 42.5,116.5C 61.1667,116.5 79.8333,116.5 98.5,116.5C 100.833,106.833 106.833,100.833 116.5,98.5C 116.5,79.8333 116.5,61.1667 116.5,42.5 Z"/></g>
<g><path style="opacity:1" fill="#4e2227" d="M 182.5,102.5 C 181.167,102.5 179.833,102.5 178.5,102.5C 178.5,83.8333 178.5,65.1667 178.5,46.5C 159.167,46.5 139.833,46.5 120.5,46.5C 120.5,66.5 120.5,86.5 120.5,106.5C 118.255,105.708 117.922,104.375 119.5,102.5C 119.5,83.5 119.5,64.5 119.5,45.5C 139.5,45.5 159.5,45.5 179.5,45.5C 179.5,64.1667 179.5,82.8333 179.5,101.5C 180.791,101.263 181.791,101.596 182.5,102.5 Z"/></g>
<g><path style="opacity:1" fill="#f9f9f9" d="M 178.5,102.5 C 177.167,105.167 177.167,107.833 178.5,110.5C 178.214,112.933 177.548,112.933 176.5,110.5C 176.5,89.8333 176.5,69.1667 176.5,48.5C 158.5,48.5 140.5,48.5 122.5,48.5C 122.5,69.1667 122.5,89.8333 122.5,110.5C 121.452,112.933 120.786,112.933 120.5,110.5C 121.833,109.167 121.833,107.833 120.5,106.5C 120.5,86.5 120.5,66.5 120.5,46.5C 139.833,46.5 159.167,46.5 178.5,46.5C 178.5,65.1667 178.5,83.8333 178.5,102.5 Z"/></g>
<g><path style="opacity:1" fill="#555555" d="M 176.5,110.5 C 175.845,89.9305 175.178,69.9305 174.5,50.5C 157.833,50.5 141.167,50.5 124.5,50.5C 123.822,69.9305 123.155,89.9305 122.5,110.5C 122.5,89.8333 122.5,69.1667 122.5,48.5C 140.5,48.5 158.5,48.5 176.5,48.5C 176.5,69.1667 176.5,89.8333 176.5,110.5 Z"/></g>
<g><path style="opacity:1" fill="#fefefe" d="M 124.5,50.5 C 141.167,50.5 157.833,50.5 174.5,50.5C 174.667,70.1695 174.5,89.8362 174,109.5C 164.923,104.124 155.089,101.79 144.5,102.5C 143.508,102.328 142.842,102.662 142.5,103.5C 136.162,104.002 130.329,106.002 125,109.5C 124.5,89.8362 124.333,70.1695 124.5,50.5 Z"/></g>
<g><path style="opacity:1" fill="#797979" d="M 142.5,103.5 C 142.842,102.662 143.508,102.328 144.5,102.5C 147.833,103.167 151.167,103.833 154.5,104.5C 150.833,104.5 147.167,104.5 143.5,104.5C 143.5,103.833 143.167,103.5 142.5,103.5 Z"/></g>
<g><path style="opacity:1" fill="#7e7b7c" d="M 119.5,102.5 C 117.922,104.375 118.255,105.708 120.5,106.5C 121.833,107.833 121.833,109.167 120.5,110.5C 119.196,111.987 118.03,113.654 117,115.5C 115.871,117.141 114.371,118.141 112.5,118.5C 111.624,118.631 110.957,118.298 110.5,117.5C 111.612,116.735 112.279,115.735 112.5,114.5C 110.097,115.727 107.597,116.727 105,117.5C 104.667,116.167 104.333,114.833 104,113.5C 103.503,115.81 103.337,118.143 103.5,120.5C 105.735,120.205 107.735,120.539 109.5,121.5C 106.941,121.802 104.607,121.468 102.5,120.5C 102.5,118.833 102.5,117.167 102.5,115.5C 103.744,110.744 106.41,106.91 110.5,104C 113.351,102.711 116.351,102.211 119.5,102.5 Z"/></g>
<g><path style="opacity:1" fill="#f8f8f8" d="M 112.5,114.5 C 109.333,106.083 110.666,105.416 116.5,112.5C 115.632,114.796 114.298,115.463 112.5,114.5 Z"/></g>
<g><path style="opacity:1" fill="#e8e8e8" d="M 107.5,109.5 C 110.341,111.867 110.008,113.867 106.5,115.5C 106.167,115.333 105.833,115.167 105.5,115C 106.464,113.275 107.131,111.441 107.5,109.5 Z"/></g>
<g><path style="opacity:1" fill="#2f2f2f" d="M 176.5,110.5 C 177.548,112.933 178.214,112.933 178.5,110.5C 180.833,114.833 184.167,118.167 188.5,120.5C 186.067,120.786 186.067,121.452 188.5,122.5C 209.07,123.155 229.07,123.822 248.5,124.5C 228.831,124.333 209.164,124.5 189.5,125C 192.998,130.329 194.998,136.162 195.5,142.5C 195.5,143.167 195.167,143.5 194.5,143.5C 191.327,123.825 180.16,111.158 161,105.5C 159.377,106.921 158.21,108.588 157.5,110.5C 157.5,108.5 157.5,106.5 157.5,104.5C 156.5,104.5 155.5,104.5 154.5,104.5C 151.167,103.833 147.833,103.167 144.5,102.5C 155.089,101.79 164.923,104.124 174,109.5C 174.5,89.8362 174.667,70.1695 174.5,50.5C 175.178,69.9305 175.845,89.9305 176.5,110.5 Z"/></g>
<g><path style="opacity:1" fill="#ededed" d="M 133.5,115.5 C 134.473,115.987 135.473,116.487 136.5,117C 134.807,117.847 133.14,118.68 131.5,119.5C 130.024,117.291 130.691,115.958 133.5,115.5 Z"/></g>
<g><path style="opacity:1" fill="#4e4444" d="M 195.5,112.5 C 196.434,113.568 196.768,114.901 196.5,116.5C 195.5,116.5 194.5,116.5 193.5,116.5C 194.167,115.167 194.833,113.833 195.5,112.5 Z"/></g>
<g><path style="opacity:1" fill="#2f2f2f" d="M 157.5,110.5 C 157.561,113.05 158.894,114.55 161.5,115C 160.833,115.333 160.167,115.667 159.5,116C 161.854,116.847 164.188,117.68 166.5,118.5C 168.139,119.473 169.473,120.806 170.5,122.5C 157.885,115.299 144.885,114.633 131.5,120.5C 131.5,120.167 131.5,119.833 131.5,119.5C 133.14,118.68 134.807,117.847 136.5,117C 135.473,116.487 134.473,115.987 133.5,115.5C 132.833,114.5 132.167,113.5 131.5,112.5C 133.861,113.435 136.028,114.768 138,116.5C 139.399,115.773 140.899,115.273 142.5,115C 143.315,111.755 143.648,108.588 143.5,105.5C 144.474,107.743 144.808,110.076 144.5,112.5C 146.144,112.714 147.644,112.38 149,111.5C 149.167,111.833 149.333,112.167 149.5,112.5C 148.271,113.281 146.938,113.781 145.5,114C 149.855,114.634 154.188,114.967 158.5,115C 156.422,113.73 156.088,112.23 157.5,110.5 Z"/></g>
<g><path style="opacity:1" fill="#f4f4f4" d="M 170.5,122.5 C 181.23,132.194 185.064,144.194 182,158.5C 181.302,159.691 180.469,160.691 179.5,161.5C 176.843,161.162 174.51,161.829 172.5,163.5C 167.188,160.646 166.355,161.646 170,166.5C 174.024,168.205 173.524,169.871 168.5,171.5C 167.232,170.572 165.899,170.405 164.5,171C 165.167,171.333 165.833,171.667 166.5,172C 165.263,172.232 164.263,172.732 163.5,173.5C 161.167,173.5 158.833,173.5 156.5,173.5C 157.66,171.797 156.993,171.131 154.5,171.5C 154.824,168.32 153.49,167.153 150.5,168C 154.445,169.409 154.445,170.575 150.5,171.5C 150.389,170.883 150.056,170.383 149.5,170C 146.832,169.433 144.166,168.933 141.5,168.5C 146.661,167.214 151.994,166.214 157.5,165.5C 164.893,170.117 167.559,168.117 165.5,159.5C 171.431,161.569 173.431,159.569 171.5,153.5C 173.74,154.568 175.574,156.234 177,158.5C 178.205,157.929 179.372,157.262 180.5,156.5C 180.376,155.893 180.043,155.56 179.5,155.5C 177.539,153.037 175.372,150.703 173,148.5C 172.667,149.167 172.333,149.833 172,150.5C 169.395,149.186 166.895,149.186 164.5,150.5C 161.626,150.377 159.126,149.377 157,147.5C 156.316,148.784 156.483,149.951 157.5,151C 152.164,154.039 147.164,153.873 142.5,150.5C 141.548,148.955 141.215,147.288 141.5,145.5C 154.618,145.747 154.618,144.747 141.5,142.5C 141.643,140.738 141.309,139.071 140.5,137.5C 143.131,135.995 142.797,135.329 139.5,135.5C 139.141,133.234 139.808,131.401 141.5,130C 138.56,129.114 137.56,129.948 138.5,132.5C 137.758,133.287 136.925,133.953 136,134.5C 135.552,132.776 134.718,132.109 133.5,132.5C 135.533,130.493 137.533,128.493 139.5,126.5C 136.65,126.364 133.817,126.031 131,125.5C 128.269,126.022 126.102,127.356 124.5,129.5C 124.167,129.5 123.833,129.5 123.5,129.5C 125.459,125.874 128.126,122.874 131.5,120.5C 144.885,114.633 157.885,115.299 170.5,122.5 Z"/></g>
<g><path style="opacity:1" fill="#8c8c8c" d="M 178.5,102.5 C 179.833,102.5 181.167,102.5 182.5,102.5C 183.791,102.263 184.791,102.596 185.5,103.5C 190.071,105.069 193.405,108.069 195.5,112.5C 194.833,113.833 194.167,115.167 193.5,116.5C 194.5,116.5 195.5,116.5 196.5,116.5C 196.5,117.5 196.5,118.5 196.5,119.5C 194.625,117.922 193.292,118.255 192.5,120.5C 191.167,121.833 189.833,121.833 188.5,120.5C 184.167,118.167 180.833,114.833 178.5,110.5C 177.167,107.833 177.167,105.167 178.5,102.5 Z"/></g>
<g><path style="opacity:1" fill="#eeeeee" d="M 183.5,105.5 C 186.876,105.918 189.543,107.918 191.5,111.5C 190.167,113.5 188.5,115.167 186.5,116.5C 185.354,115.855 184.354,115.022 183.5,114C 185.377,112.815 187.377,111.815 189.5,111C 187.941,110.02 186.274,109.187 184.5,108.5C 183.873,107.583 183.539,106.583 183.5,105.5 Z"/></g>
<g><path style="opacity:1" fill="#e7e7e7" d="M 185.5,103.5 C 184.391,104.29 183.058,104.79 181.5,105C 182.747,106.494 182.747,107.994 181.5,109.5C 180.402,105.639 179.569,105.639 179,109.5C 178.505,107.527 178.338,105.527 178.5,103.5C 180.833,103.5 183.167,103.5 185.5,103.5 Z"/></g>
<g><path style="opacity:1" fill="#c5c5c5" d="M 112.5,114.5 C 112.279,115.735 111.612,116.735 110.5,117.5C 110.957,118.298 111.624,118.631 112.5,118.5C 111.833,119.167 111.167,119.833 110.5,120.5C 110.5,121.167 110.167,121.5 109.5,121.5C 107.735,120.539 105.735,120.205 103.5,120.5C 103.337,118.143 103.503,115.81 104,113.5C 104.333,114.833 104.667,116.167 105,117.5C 107.597,116.727 110.097,115.727 112.5,114.5 Z"/></g>
<g><path style="opacity:1" fill="#d8d8d8" d="M 172.5,115.5 C 173.148,116.979 173.481,118.479 173.5,120C 172.922,121.417 171.922,122.25 170.5,122.5C 169.473,120.806 168.139,119.473 166.5,118.5C 169.089,118.539 171.089,117.539 172.5,115.5 Z"/></g>
<g><path style="opacity:1" fill="#4b2126" d="M 102.5,115.5 C 102.5,117.167 102.5,118.833 102.5,120.5C 83.8333,120.5 65.1667,120.5 46.5,120.5C 46.5,139.833 46.5,159.167 46.5,178.5C 66.5,178.5 86.5,178.5 106.5,178.5C 105.708,180.745 104.375,181.078 102.5,179.5C 83.5,179.5 64.5,179.5 45.5,179.5C 45.5,159.5 45.5,139.5 45.5,119.5C 64.1667,119.5 82.8333,119.5 101.5,119.5C 101.232,117.901 101.566,116.568 102.5,115.5 Z"/></g>
<g><path style="opacity:1" fill="#9b9b9b" d="M 139.5,126.5 C 138.402,125.603 138.402,124.77 139.5,124C 138.376,123.751 137.376,123.251 136.5,122.5C 141.057,121.356 145.391,119.689 149.5,117.5C 152.745,118.91 155.578,120.91 158,123.5C 160.46,124.598 162.96,125.598 165.5,126.5C 166.645,127.776 166.645,129.109 165.5,130.5C 161.363,133.071 157.03,135.404 152.5,137.5C 151.571,138.689 151.238,140.022 151.5,141.5C 154.68,141.176 155.847,142.51 155,145.5C 154.626,144.584 154.126,143.75 153.5,143C 146.682,142.385 144.682,138.885 147.5,132.5C 145.808,130.795 144.475,128.795 143.5,126.5C 142.3,125.708 140.967,125.708 139.5,126.5 Z"/></g>
<g><path style="opacity:1" fill="#f6f6f6" d="M 147.5,124.5 C 146,122.491 146.5,121.158 149,120.5C 150.434,120.93 151.601,121.764 152.5,123C 151.069,123.465 149.903,124.299 149,125.5C 148.617,124.944 148.117,124.611 147.5,124.5 Z"/></g>
<g><path style="opacity:1" fill="#4b2126" d="M 196.5,119.5 C 215.5,119.5 234.5,119.5 253.5,119.5C 253.5,139.5 253.5,159.5 253.5,179.5C 234.833,179.5 216.167,179.5 197.5,179.5C 197.737,180.791 197.404,181.791 196.5,182.5C 196.5,181.167 196.5,179.833 196.5,178.5C 215.167,178.5 233.833,178.5 252.5,178.5C 252.5,159.167 252.5,139.833 252.5,120.5C 232.5,120.5 212.5,120.5 192.5,120.5C 193.292,118.255 194.625,117.922 196.5,119.5 Z"/></g>
<g><path style="opacity:1" fill="#f9f9f9" d="M 102.5,120.5 C 104.607,121.468 106.941,121.802 109.5,121.5C 110.167,121.5 110.5,121.167 110.5,120.5C 112.933,120.786 112.933,121.452 110.5,122.5C 89.8333,122.5 69.1667,122.5 48.5,122.5C 48.5,140.5 48.5,158.5 48.5,176.5C 69.1667,176.5 89.8333,176.5 110.5,176.5C 109.167,177.167 107.833,177.833 106.5,178.5C 86.5,178.5 66.5,178.5 46.5,178.5C 46.5,159.167 46.5,139.833 46.5,120.5C 65.1667,120.5 83.8333,120.5 102.5,120.5 Z"/></g>
<g><path style="opacity:1" fill="#f8f8f8" d="M 188.5,120.5 C 189.833,121.833 191.167,121.833 192.5,120.5C 212.5,120.5 232.5,120.5 252.5,120.5C 252.5,139.833 252.5,159.167 252.5,178.5C 233.833,178.5 215.167,178.5 196.5,178.5C 194.167,177.167 191.833,177.167 189.5,178.5C 189.167,178.5 188.833,178.5 188.5,178.5C 186.067,178.214 186.067,177.548 188.5,176.5C 209.167,176.5 229.833,176.5 250.5,176.5C 250.5,158.5 250.5,140.5 250.5,122.5C 229.833,122.5 209.167,122.5 188.5,122.5C 186.067,121.452 186.067,120.786 188.5,120.5 Z"/></g>
<g><path style="opacity:1" fill="#555555" d="M 110.5,122.5 C 89.9305,123.155 69.9305,123.822 50.5,124.5C 50.5,141.167 50.5,157.833 50.5,174.5C 69.9305,175.178 89.9305,175.845 110.5,176.5C 89.8333,176.5 69.1667,176.5 48.5,176.5C 48.5,158.5 48.5,140.5 48.5,122.5C 69.1667,122.5 89.8333,122.5 110.5,122.5 Z"/></g>
<g><path style="opacity:1" fill="#f1f1f1" d="M 143.5,104.5 C 147.167,104.5 150.833,104.5 154.5,104.5C 155.5,104.5 156.5,104.5 157.5,104.5C 157.5,106.5 157.5,108.5 157.5,110.5C 156.088,112.23 156.422,113.73 158.5,115C 154.188,114.967 149.855,114.634 145.5,114C 146.938,113.781 148.271,113.281 149.5,112.5C 149.333,112.167 149.167,111.833 149,111.5C 147.644,112.38 146.144,112.714 144.5,112.5C 144.808,110.076 144.474,107.743 143.5,105.5C 143.648,108.588 143.315,111.755 142.5,115C 140.899,115.273 139.399,115.773 138,116.5C 136.028,114.768 133.861,113.435 131.5,112.5C 131.189,111.522 130.522,110.855 129.5,110.5C 128.833,114.5 128.167,118.5 127.5,122.5C 126.186,123.313 125.019,124.313 124,125.5C 120.76,119.983 119.927,120.316 121.5,126.5C 117.169,127.549 115.003,125.882 115,121.5C 112.922,123.681 113.089,125.681 115.5,127.5C 117.693,128.344 119.693,128.677 121.5,128.5C 118.719,132.059 117.052,136.059 116.5,140.5C 115.778,140.918 115.278,141.584 115,142.5C 114.667,146.833 114.333,151.167 114,155.5C 108.945,152.051 105.945,153.384 105,159.5C 104.506,157.866 104.34,156.199 104.5,154.5C 104.5,152.167 104.5,149.833 104.5,147.5C 106.5,147.5 108.5,147.5 110.5,147.5C 114.456,146.947 114.456,146.114 110.5,145C 111.833,143.667 113.167,142.333 114.5,141C 112.953,140.667 111.62,141.167 110.5,142.5C 108.239,140.827 106.572,141.16 105.5,143.5C 105.167,143.5 104.833,143.5 104.5,143.5C 108.5,121.5 121.5,108.5 143.5,104.5 Z"/></g>
<g><path style="opacity:1" fill="#555555" d="M 188.5,122.5 C 209.167,122.5 229.833,122.5 250.5,122.5C 250.5,140.5 250.5,158.5 250.5,176.5C 229.833,176.5 209.167,176.5 188.5,176.5C 209.07,175.845 229.07,175.178 248.5,174.5C 248.5,157.833 248.5,141.167 248.5,124.5C 229.07,123.822 209.07,123.155 188.5,122.5 Z"/></g>
<g><path style="opacity:1" fill="#fefefe" d="M 50.5,124.5 C 70.1695,124.333 89.8362,124.5 109.5,125C 106.002,130.329 104.002,136.162 103.5,142.5C 102.662,142.842 102.328,143.508 102.5,144.5C 101.79,155.089 104.124,164.923 109.5,174C 89.8362,174.5 70.1695,174.667 50.5,174.5C 50.5,157.833 50.5,141.167 50.5,124.5 Z"/></g>
<g><path style="opacity:1" fill="#4a4a4a" d="M 131.5,112.5 C 132.167,113.5 132.833,114.5 133.5,115.5C 130.691,115.958 130.024,117.291 131.5,119.5C 131.5,119.833 131.5,120.167 131.5,120.5C 128.126,122.874 125.459,125.874 123.5,129.5C 122.542,129.953 121.708,130.619 121,131.5C 119.454,134.592 117.954,137.592 116.5,140.5C 117.052,136.059 118.719,132.059 121.5,128.5C 119.693,128.677 117.693,128.344 115.5,127.5C 113.089,125.681 112.922,123.681 115,121.5C 115.003,125.882 117.169,127.549 121.5,126.5C 119.927,120.316 120.76,119.983 124,125.5C 125.019,124.313 126.186,123.313 127.5,122.5C 128.167,118.5 128.833,114.5 129.5,110.5C 130.522,110.855 131.189,111.522 131.5,112.5 Z"/></g>
<g><path style="opacity:1" fill="#fefefe" d="M 248.5,124.5 C 248.5,141.167 248.5,157.833 248.5,174.5C 228.831,174.667 209.164,174.5 189.5,174C 192.79,168.961 194.79,163.461 195.5,157.5C 196.833,152.5 196.833,147.5 195.5,142.5C 194.998,136.162 192.998,130.329 189.5,125C 209.164,124.5 228.831,124.333 248.5,124.5 Z"/></g>
<g><path style="opacity:1" fill="#f8f8f8" d="M 147.5,124.5 C 147.66,126.199 147.494,127.866 147,129.5C 144.935,127.549 145.102,125.882 147.5,124.5 Z"/></g>
<g><path style="opacity:1" fill="#f8f8f8" d="M 153.5,125.5 C 156.516,125.841 159.182,127.007 161.5,129C 158.472,130.14 156.305,129.306 155,126.5C 154.08,129.308 154.913,131.475 157.5,133C 155.842,134.663 153.842,135.496 151.5,135.5C 151.034,131.838 151.701,128.505 153.5,125.5 Z"/></g>
<g><path style="opacity:1" fill="#2c2c2c" d="M 124.5,50.5 C 124.333,70.1695 124.5,89.8362 125,109.5C 130.329,106.002 136.162,104.002 142.5,103.5C 143.167,103.5 143.5,103.833 143.5,104.5C 121.5,108.5 108.5,121.5 104.5,143.5C 103.833,143.5 103.5,143.167 103.5,142.5C 104.002,136.162 106.002,130.329 109.5,125C 89.8362,124.5 70.1695,124.333 50.5,124.5C 69.9305,123.822 89.9305,123.155 110.5,122.5C 112.933,121.452 112.933,120.786 110.5,120.5C 111.167,119.833 111.833,119.167 112.5,118.5C 114.371,118.141 115.871,117.141 117,115.5C 118.03,113.654 119.196,111.987 120.5,110.5C 120.786,112.933 121.452,112.933 122.5,110.5C 123.155,89.9305 123.822,69.9305 124.5,50.5 Z"/></g>
<g><path style="opacity:1" fill="#f2f2f2" d="M 194.5,143.5 C 194.81,146.713 194.477,149.713 193.5,152.5C 190.813,152.336 188.146,152.503 185.5,153C 186.624,153.249 187.624,153.749 188.5,154.5C 187.135,155.941 185.635,157.274 184,158.5C 184.055,153.866 184.555,149.199 185.5,144.5C 187.729,143.423 190.063,142.756 192.5,142.5C 193.957,144.54 193.79,143.206 192,138.5C 191.517,139.448 191.351,140.448 191.5,141.5C 188.881,141.232 186.381,141.565 184,142.5C 182.724,137.946 180.891,133.613 178.5,129.5C 179.167,128.167 180.167,127.167 181.5,126.5C 182.167,128.833 182.833,131.167 183.5,133.5C 185.51,132.498 187.51,131.498 189.5,130.5C 187.939,129.653 186.439,129.986 185,131.5C 184.788,128.668 184.621,126.002 184.5,123.5C 181.921,124.706 179.421,126.039 177,127.5C 175.833,126.333 174.667,125.167 173.5,124C 174.787,120.875 174.787,117.709 173.5,114.5C 172.893,114.624 172.56,114.957 172.5,115.5C 170.181,115.992 168.181,116.992 166.5,118.5C 164.188,117.68 161.854,116.847 159.5,116C 160.167,115.667 160.833,115.333 161.5,115C 158.894,114.55 157.561,113.05 157.5,110.5C 158.21,108.588 159.377,106.921 161,105.5C 180.16,111.158 191.327,123.825 194.5,143.5 Z"/></g>
<g><path style="opacity:1" fill="#474747" d="M 172.5,115.5 C 171.089,117.539 169.089,118.539 166.5,118.5C 168.181,116.992 170.181,115.992 172.5,115.5 Z"/></g>
<g><path style="opacity:1" fill="#929292" d="M 163.5,141.5 C 161.86,140.68 160.193,139.847 158.5,139C 161.687,136.476 163.354,137.31 163.5,141.5 Z"/></g>
<g><path style="opacity:1" fill="#cfcfcf" d="M 123.5,129.5 C 123.833,129.5 124.167,129.5 124.5,129.5C 127.451,130.245 130.451,130.412 133.5,130C 131.699,130.317 131.366,130.984 132.5,132C 131.167,134.667 129.167,136.667 126.5,138C 126.205,139.714 126.538,141.547 127.5,143.5C 124.429,144.089 121.429,143.423 118.5,141.5C 117.817,141.863 117.15,142.196 116.5,142.5C 116.5,141.833 116.5,141.167 116.5,140.5C 117.954,137.592 119.454,134.592 121,131.5C 121.708,130.619 122.542,129.953 123.5,129.5 Z"/></g>
<g><path style="opacity:1" fill="#f2f2f2" d="M 106.5,145.5 C 106.5,144.833 106.5,144.167 106.5,143.5C 107.743,142.263 108.743,142.596 109.5,144.5C 108.675,145.386 107.675,145.719 106.5,145.5 Z"/></g>
<g><path style="opacity:1" fill="#2c2c2c" d="M 110.5,147.5 C 108.49,146.983 107.157,146.316 106.5,145.5C 107.675,145.719 108.675,145.386 109.5,144.5C 108.743,142.596 107.743,142.263 106.5,143.5C 106.167,143.5 105.833,143.5 105.5,143.5C 106.572,141.16 108.239,140.827 110.5,142.5C 111.62,141.167 112.953,140.667 114.5,141C 113.167,142.333 111.833,143.667 110.5,145C 114.456,146.114 114.456,146.947 110.5,147.5 Z"/></g>
<g><path style="opacity:1" fill="#c3c3c3" d="M 168.5,143.5 C 167.206,144.29 166.039,145.29 165,146.5C 164.833,145.833 164.667,145.167 164.5,144.5C 165.286,142.959 166.286,141.626 167.5,140.5C 172.606,139.531 176.939,141.198 180.5,145.5C 178.431,146.666 176.098,146.166 173.5,144C 171.866,143.506 170.199,143.34 168.5,143.5 Z"/></g>
<g><path style="opacity:1" fill="#9e9e9e" d="M 139.5,126.5 C 137.533,128.493 135.533,130.493 133.5,132.5C 134.718,132.109 135.552,132.776 136,134.5C 136.925,133.953 137.758,133.287 138.5,132.5C 137.56,129.948 138.56,129.114 141.5,130C 139.808,131.401 139.141,133.234 139.5,135.5C 142.797,135.329 143.131,135.995 140.5,137.5C 141.309,139.071 141.643,140.738 141.5,142.5C 154.618,144.747 154.618,145.747 141.5,145.5C 141.215,147.288 141.548,148.955 142.5,150.5C 147.164,153.873 152.164,154.039 157.5,151C 156.483,149.951 156.316,148.784 157,147.5C 159.126,149.377 161.626,150.377 164.5,150.5C 162.81,151.103 161.31,152.103 160,153.5C 159.667,152.833 159.333,152.167 159,151.5C 158.292,152.381 157.458,153.047 156.5,153.5C 154.234,153.141 152.401,153.808 151,155.5C 150.667,155.167 150.333,154.833 150,154.5C 150.077,155.738 149.911,156.738 149.5,157.5C 148.749,156.624 148.249,155.624 148,154.5C 147.8,156.32 146.966,157.653 145.5,158.5C 146.689,155.011 145.855,154.678 143,157.5C 142.647,156.328 142.813,155.162 143.5,154C 143.387,152.72 142.72,151.887 141.5,151.5C 140.526,149.257 140.192,146.924 140.5,144.5C 135.846,144.395 135.346,145.729 139,148.5C 139.749,149.635 139.583,150.635 138.5,151.5C 136.619,149.266 134.285,147.933 131.5,147.5C 132.129,144.783 130.796,143.45 127.5,143.5C 126.538,141.547 126.205,139.714 126.5,138C 129.167,136.667 131.167,134.667 132.5,132C 131.366,130.984 131.699,130.317 133.5,130C 130.451,130.412 127.451,130.245 124.5,129.5C 126.102,127.356 128.269,126.022 131,125.5C 133.817,126.031 136.65,126.364 139.5,126.5 Z"/></g>
<g><path style="opacity:1" fill="#fbfbfb" d="M 137.5,134.5 C 142.445,139.647 141.445,142.98 134.5,144.5C 133.167,143.833 132.167,142.833 131.5,141.5C 132.833,138.507 134.833,136.173 137.5,134.5 Z"/></g>
<g><path style="opacity:1" fill="#838383" d="M 167.5,140.5 C 166.286,141.626 165.286,142.959 164.5,144.5C 164.667,145.167 164.833,145.833 165,146.5C 166.039,145.29 167.206,144.29 168.5,143.5C 168.586,144.496 168.252,145.329 167.5,146C 168.5,146.333 169.5,146.667 170.5,147C 167.072,147.701 163.738,147.368 160.5,146C 161.448,145.517 162.448,145.351 163.5,145.5C 163.5,144.167 163.5,142.833 163.5,141.5C 164.833,141.167 166.167,140.833 167.5,140.5 Z"/></g>
<g><path style="opacity:1" fill="#414141" d="M 172.5,115.5 C 172.56,114.957 172.893,114.624 173.5,114.5C 174.787,117.709 174.787,120.875 173.5,124C 174.667,125.167 175.833,126.333 177,127.5C 179.421,126.039 181.921,124.706 184.5,123.5C 184.621,126.002 184.788,128.668 185,131.5C 186.439,129.986 187.939,129.653 189.5,130.5C 187.51,131.498 185.51,132.498 183.5,133.5C 182.833,131.167 182.167,128.833 181.5,126.5C 180.167,127.167 179.167,128.167 178.5,129.5C 180.891,133.613 182.724,137.946 184,142.5C 186.381,141.565 188.881,141.232 191.5,141.5C 191.351,140.448 191.517,139.448 192,138.5C 193.79,143.206 193.957,144.54 192.5,142.5C 190.063,142.756 187.729,143.423 185.5,144.5C 184.555,149.199 184.055,153.866 184,158.5C 185.635,157.274 187.135,155.941 188.5,154.5C 187.624,153.749 186.624,153.249 185.5,153C 188.146,152.503 190.813,152.336 193.5,152.5C 192.665,153.943 191.332,154.943 189.5,155.5C 190.651,156.731 191.817,156.731 193,155.5C 193.47,156.577 193.303,157.577 192.5,158.5C 190.488,157.986 188.488,157.82 186.5,158C 185.271,159.529 183.771,160.696 182,161.5C 181.392,163.154 180.892,164.821 180.5,166.5C 179.833,166.833 179.167,167.167 178.5,167.5C 179.171,166.153 179.171,164.986 178.5,164C 180.619,163.658 180.953,162.825 179.5,161.5C 180.469,160.691 181.302,159.691 182,158.5C 185.064,144.194 181.23,132.194 170.5,122.5C 171.922,122.25 172.922,121.417 173.5,120C 173.481,118.479 173.148,116.979 172.5,115.5 Z"/></g>
<g><path style="opacity:1" fill="#858585" d="M 103.5,142.5 C 103.5,143.167 103.833,143.5 104.5,143.5C 104.833,143.5 105.167,143.5 105.5,143.5C 105.833,143.5 106.167,143.5 106.5,143.5C 106.5,144.167 106.5,144.833 106.5,145.5C 107.157,146.316 108.49,146.983 110.5,147.5C 108.5,147.5 106.5,147.5 104.5,147.5C 104.5,149.833 104.5,152.167 104.5,154.5C 103.833,151.167 103.167,147.833 102.5,144.5C 102.328,143.508 102.662,142.842 103.5,142.5 Z"/></g>
<g><path style="opacity:1" fill="#f6f6f6" d="M 127.5,143.5 C 130.796,143.45 132.129,144.783 131.5,147.5C 134.285,147.933 136.619,149.266 138.5,151.5C 139.583,150.635 139.749,149.635 139,148.5C 135.346,145.729 135.846,144.395 140.5,144.5C 140.192,146.924 140.526,149.257 141.5,151.5C 142.72,151.887 143.387,152.72 143.5,154C 142.813,155.162 142.647,156.328 143,157.5C 145.855,154.678 146.689,155.011 145.5,158.5C 143.534,159.255 143.2,160.421 144.5,162C 147.167,162.333 149.833,162.667 152.5,163C 148.514,163.499 144.514,163.666 140.5,163.5C 141.514,157.077 140.181,156.911 136.5,163C 137.65,165.316 139.317,167.15 141.5,168.5C 142.476,169.815 143.476,171.148 144.5,172.5C 144.167,172.833 143.833,173.167 143.5,173.5C 142.833,172.833 142.167,172.167 141.5,171.5C 139.49,173.253 137.157,174.253 134.5,174.5C 135.552,172.345 134.886,172.012 132.5,173.5C 131.304,173.154 131.304,172.654 132.5,172C 130.246,170.85 127.913,170.516 125.5,171C 126.328,171.915 127.328,172.581 128.5,173C 127.906,173.464 127.239,173.631 126.5,173.5C 122.32,170.133 119.487,165.8 118,160.5C 116.696,154.577 116.196,148.577 116.5,142.5C 117.15,142.196 117.817,141.863 118.5,141.5C 121.429,143.423 124.429,144.089 127.5,143.5 Z"/></g>
<g><path style="opacity:1" fill="#c6c6c6" d="M 131.5,147.5 C 130.962,149.117 130.629,150.784 130.5,152.5C 128.051,151.943 125.718,151.943 123.5,152.5C 125.041,154.204 126.375,156.037 127.5,158C 126.993,160.541 126.326,163.041 125.5,165.5C 124.833,165.833 124.167,166.167 123.5,166.5C 122.757,165.092 121.923,163.759 121,162.5C 121.745,158.924 120.911,155.59 118.5,152.5C 119.128,150.742 120.128,149.242 121.5,148C 124.877,148.619 128.21,148.453 131.5,147.5 Z"/></g>
<g><path style="opacity:1" fill="#c5c5c5" d="M 179.5,155.5 C 179.103,156.525 178.437,156.692 177.5,156C 176.333,154.167 174.833,152.667 173,151.5C 172.283,152.044 171.783,152.711 171.5,153.5C 169.665,153.939 168.165,155.272 167,157.5C 165.121,154.934 163.288,154.934 161.5,157.5C 161.44,158.043 161.107,158.376 160.5,158.5C 158.018,157.103 155.352,156.269 152.5,156C 154.437,155.878 155.77,155.045 156.5,153.5C 157.458,153.047 158.292,152.381 159,151.5C 159.333,152.167 159.667,152.833 160,153.5C 161.31,152.103 162.81,151.103 164.5,150.5C 166.895,149.186 169.395,149.186 172,150.5C 172.333,149.833 172.667,149.167 173,148.5C 175.372,150.703 177.539,153.037 179.5,155.5 Z"/></g>
<g><path style="opacity:1" fill="#747474" d="M 179.5,155.5 C 180.043,155.56 180.376,155.893 180.5,156.5C 179.372,157.262 178.205,157.929 177,158.5C 175.574,156.234 173.74,154.568 171.5,153.5C 171.783,152.711 172.283,152.044 173,151.5C 174.833,152.667 176.333,154.167 177.5,156C 178.437,156.692 179.103,156.525 179.5,155.5 Z"/></g>
<g><path style="opacity:1" fill="#808080" d="M 195.5,142.5 C 196.833,147.5 196.833,152.5 195.5,157.5C 195.631,156.761 195.464,156.094 195,155.5C 194.79,157.058 194.29,158.391 193.5,159.5C 193.5,158.833 193.167,158.5 192.5,158.5C 193.303,157.577 193.47,156.577 193,155.5C 191.817,156.731 190.651,156.731 189.5,155.5C 191.332,154.943 192.665,153.943 193.5,152.5C 194.477,149.713 194.81,146.713 194.5,143.5C 195.167,143.5 195.5,143.167 195.5,142.5 Z"/></g>
<g><path style="opacity:1" fill="#f3f3f3" d="M 156.5,153.5 C 155.77,155.045 154.437,155.878 152.5,156C 155.352,156.269 158.018,157.103 160.5,158.5C 161.107,158.376 161.44,158.043 161.5,157.5C 163.483,157.157 164.817,157.824 165.5,159.5C 164.71,160.609 164.21,161.942 164,163.5C 163.333,158.167 162.667,158.167 162,163.5C 160.951,162.483 159.784,162.316 158.5,163C 160.595,163.556 160.762,164.056 159,164.5C 157.72,164.387 156.887,163.72 156.5,162.5C 158.167,161.833 159.833,161.167 161.5,160.5C 157.711,158.579 153.711,158.079 149.5,159C 152.003,160.22 154.669,160.553 157.5,160C 153.637,161.354 149.637,161.854 145.5,161.5C 145.5,160.5 145.5,159.5 145.5,158.5C 146.966,157.653 147.8,156.32 148,154.5C 148.249,155.624 148.749,156.624 149.5,157.5C 149.911,156.738 150.077,155.738 150,154.5C 150.333,154.833 150.667,155.167 151,155.5C 152.401,153.808 154.234,153.141 156.5,153.5 Z"/></g>
<g><path style="opacity:1" fill="#919191" d="M 171.5,153.5 C 173.431,159.569 171.431,161.569 165.5,159.5C 164.817,157.824 163.483,157.157 161.5,157.5C 163.288,154.934 165.121,154.934 167,157.5C 168.165,155.272 169.665,153.939 171.5,153.5 Z"/></g>
<g><path style="opacity:1" fill="#f5f5f5" d="M 192.5,158.5 C 193.167,158.5 193.5,158.833 193.5,159.5C 193.174,162.311 192.341,164.978 191,167.5C 190.667,167.167 190.333,166.833 190,166.5C 186.797,169.077 183.63,169.077 180.5,166.5C 180.892,164.821 181.392,163.154 182,161.5C 183.771,160.696 185.271,159.529 186.5,158C 188.488,157.82 190.488,157.986 192.5,158.5 Z"/></g>
<g><path style="opacity:1" fill="#a9a9a9" d="M 145.5,158.5 C 145.5,159.5 145.5,160.5 145.5,161.5C 149.637,161.854 153.637,161.354 157.5,160C 154.669,160.553 152.003,160.22 149.5,159C 153.711,158.079 157.711,158.579 161.5,160.5C 159.833,161.167 158.167,161.833 156.5,162.5C 156.887,163.72 157.72,164.387 159,164.5C 160.762,164.056 160.595,163.556 158.5,163C 159.784,162.316 160.951,162.483 162,163.5C 162.667,158.167 163.333,158.167 164,163.5C 164.21,161.942 164.71,160.609 165.5,159.5C 167.559,168.117 164.893,170.117 157.5,165.5C 151.994,166.214 146.661,167.214 141.5,168.5C 139.317,167.15 137.65,165.316 136.5,163C 140.181,156.911 141.514,157.077 140.5,163.5C 144.514,163.666 148.514,163.499 152.5,163C 149.833,162.667 147.167,162.333 144.5,162C 143.2,160.421 143.534,159.255 145.5,158.5 Z"/></g>
<g><path style="opacity:1" fill="#acacac" d="M 179.5,161.5 C 180.953,162.825 180.619,163.658 178.5,164C 179.171,164.986 179.171,166.153 178.5,167.5C 174.921,172.591 169.921,174.591 163.5,173.5C 164.263,172.732 165.263,172.232 166.5,172C 165.833,171.667 165.167,171.333 164.5,171C 165.899,170.405 167.232,170.572 168.5,171.5C 173.524,169.871 174.024,168.205 170,166.5C 166.355,161.646 167.188,160.646 172.5,163.5C 174.51,161.829 176.843,161.162 179.5,161.5 Z"/></g>
<g><path style="opacity:1" fill="#f6f6f6" d="M 180.5,166.5 C 182.445,168.97 184.278,171.637 186,174.5C 185.591,172.775 185.758,171.108 186.5,169.5C 187.891,168.355 189.224,168.355 190.5,169.5C 183.017,183.644 171.351,191.977 155.5,194.5C 154.127,194.657 152.793,194.49 151.5,194C 152.056,193.617 152.389,193.117 152.5,192.5C 154.914,191.223 155.081,189.557 153,187.5C 152.086,188.654 151.253,188.487 150.5,187C 150.833,186.667 151.167,186.333 151.5,186C 146.502,184.67 144.336,186.504 145,191.5C 145.383,192.056 145.883,192.389 146.5,192.5C 146.611,193.117 146.944,193.617 147.5,194C 146.207,194.49 144.873,194.657 143.5,194.5C 130.535,192.694 120.202,186.527 112.5,176C 115.053,173.575 117.72,171.408 120.5,169.5C 125.99,176.977 133.323,181.644 142.5,183.5C 147.167,184.833 151.833,184.833 156.5,183.5C 158.553,183.598 160.22,182.931 161.5,181.5C 169.59,179.741 175.256,175.074 178.5,167.5C 179.167,167.167 179.833,166.833 180.5,166.5 Z"/></g>
<g><path style="opacity:1" fill="#9a9a9a" d="M 156.5,173.5 C 154.143,173.663 151.81,173.497 149.5,173C 150.056,172.617 150.389,172.117 150.5,171.5C 154.445,170.575 154.445,169.409 150.5,168C 153.49,167.153 154.824,168.32 154.5,171.5C 156.993,171.131 157.66,171.797 156.5,173.5 Z"/></g>
<g><path style="opacity:1" fill="#7b7b7b" d="M 134.5,174.5 C 132.265,174.205 130.265,174.539 128.5,175.5C 127.5,175.167 126.833,174.5 126.5,173.5C 127.239,173.631 127.906,173.464 128.5,173C 127.328,172.581 126.328,171.915 125.5,171C 127.913,170.516 130.246,170.85 132.5,172C 131.304,172.654 131.304,173.154 132.5,173.5C 134.886,172.012 135.552,172.345 134.5,174.5 Z"/></g>
<g><path style="opacity:1" fill="#4c4c4c" d="M 178.5,167.5 C 175.256,175.074 169.59,179.741 161.5,181.5C 164.607,179.772 167.607,177.772 170.5,175.5C 168.333,175.167 166.167,174.833 164,174.5C 159.183,175.414 154.35,176.081 149.5,176.5C 151.441,175.899 153.775,174.899 156.5,173.5C 158.833,173.5 161.167,173.5 163.5,173.5C 169.921,174.591 174.921,172.591 178.5,167.5 Z"/></g>
<g><path style="opacity:1" fill="#ececec" d="M 134.5,174.5 C 134.574,176.411 135.574,177.578 137.5,178C 136.956,178.717 136.289,179.217 135.5,179.5C 132.669,178.921 130.336,177.588 128.5,175.5C 130.265,174.539 132.265,174.205 134.5,174.5 Z"/></g>
<g><path style="opacity:1" fill="#f5f5f5" d="M 161.5,181.5 C 159.139,181.674 156.806,182.007 154.5,182.5C 151.167,182.5 147.833,182.5 144.5,182.5C 142.435,182.483 140.435,182.15 138.5,181.5C 140.223,179.782 142.223,178.449 144.5,177.5C 148.057,178.8 151.724,180.133 155.5,181.5C 156.711,180.726 156.711,179.893 155.5,179C 153.277,178.434 151.277,177.6 149.5,176.5C 154.35,176.081 159.183,175.414 164,174.5C 166.167,174.833 168.333,175.167 170.5,175.5C 167.607,177.772 164.607,179.772 161.5,181.5 Z"/></g>
<g><path style="opacity:1" fill="#929292" d="M 141.5,168.5 C 144.166,168.933 146.832,169.433 149.5,170C 150.056,170.383 150.389,170.883 150.5,171.5C 148.224,171.756 147.057,173.09 147,175.5C 145.612,174.446 144.112,174.28 142.5,175C 144.935,175.075 145.602,175.908 144.5,177.5C 142.223,178.449 140.223,179.782 138.5,181.5C 137.29,181.068 136.29,180.401 135.5,179.5C 136.289,179.217 136.956,178.717 137.5,178C 135.574,177.578 134.574,176.411 134.5,174.5C 137.157,174.253 139.49,173.253 141.5,171.5C 142.167,172.167 142.833,172.833 143.5,173.5C 143.833,173.167 144.167,172.833 144.5,172.5C 143.476,171.148 142.476,169.815 141.5,168.5 Z"/></g>
<g><path style="opacity:1" fill="#c4c4c4" d="M 150.5,171.5 C 150.389,172.117 150.056,172.617 149.5,173C 151.81,173.497 154.143,173.663 156.5,173.5C 153.775,174.899 151.441,175.899 149.5,176.5C 151.277,177.6 153.277,178.434 155.5,179C 156.711,179.893 156.711,180.726 155.5,181.5C 151.724,180.133 148.057,178.8 144.5,177.5C 145.602,175.908 144.935,175.075 142.5,175C 144.112,174.28 145.612,174.446 147,175.5C 147.057,173.09 148.224,171.756 150.5,171.5 Z"/></g>
<g><path style="opacity:1" fill="#2f2f2f" d="M 195.5,157.5 C 194.79,163.461 192.79,168.961 189.5,174C 209.164,174.5 228.831,174.667 248.5,174.5C 229.07,175.178 209.07,175.845 188.5,176.5C 186.067,177.548 186.067,178.214 188.5,178.5C 184.189,180.647 181.022,183.98 179,188.5C 178.295,186.014 177.462,186.014 176.5,188.5C 175.845,209.07 175.178,229.07 174.5,248.5C 174.667,228.831 174.5,209.164 174,189.5C 168.961,192.79 163.461,194.79 157.5,195.5C 156.508,195.672 155.842,195.338 155.5,194.5C 171.351,191.977 183.017,183.644 190.5,169.5C 189.224,168.355 187.891,168.355 186.5,169.5C 185.758,171.108 185.591,172.775 186,174.5C 184.278,171.637 182.445,168.97 180.5,166.5C 183.63,169.077 186.797,169.077 190,166.5C 190.333,166.833 190.667,167.167 191,167.5C 192.341,164.978 193.174,162.311 193.5,159.5C 194.29,158.391 194.79,157.058 195,155.5C 195.464,156.094 195.631,156.761 195.5,157.5 Z"/></g>
<g><path style="opacity:1" fill="#818080" d="M 189.5,178.5 C 191.833,177.167 194.167,177.167 196.5,178.5C 196.5,179.833 196.5,181.167 196.5,182.5C 196.737,183.791 196.404,184.791 195.5,185.5C 195.5,183.167 195.5,180.833 195.5,178.5C 193.5,178.5 191.5,178.5 189.5,178.5 Z"/></g>
<g><path style="opacity:1" fill="#e9e9e9" d="M 189.5,178.5 C 191.5,178.5 193.5,178.5 195.5,178.5C 195.5,180.833 195.5,183.167 195.5,185.5C 194.71,184.391 194.21,183.058 194,181.5C 192.365,182.849 190.865,182.682 189.5,181C 190.5,180.667 191.5,180.333 192.5,180C 191.263,179.768 190.263,179.268 189.5,178.5 Z"/></g>
<g><path style="opacity:1" fill="#303030" d="M 116.5,140.5 C 116.5,141.167 116.5,141.833 116.5,142.5C 116.196,148.577 116.696,154.577 118,160.5C 119.487,165.8 122.32,170.133 126.5,173.5C 126.833,174.5 127.5,175.167 128.5,175.5C 130.336,177.588 132.669,178.921 135.5,179.5C 136.29,180.401 137.29,181.068 138.5,181.5C 140.435,182.15 142.435,182.483 144.5,182.5C 144.158,183.338 143.492,183.672 142.5,183.5C 133.323,181.644 125.99,176.977 120.5,169.5C 117.72,171.408 115.053,173.575 112.5,176C 120.202,186.527 130.535,192.694 143.5,194.5C 143.5,194.833 143.5,195.167 143.5,195.5C 136.789,195.208 130.623,193.208 125,189.5C 124.5,209.164 124.333,228.831 124.5,248.5C 123.822,229.07 123.155,209.07 122.5,188.5C 121.452,186.067 120.786,186.067 120.5,188.5C 118.353,184.189 115.02,181.022 110.5,179C 112.986,178.295 112.986,177.462 110.5,176.5C 89.9305,175.845 69.9305,175.178 50.5,174.5C 70.1695,174.667 89.8362,174.5 109.5,174C 104.124,164.923 101.79,155.089 102.5,144.5C 103.167,147.833 103.833,151.167 104.5,154.5C 104.34,156.199 104.506,157.866 105,159.5C 105.945,153.384 108.945,152.051 114,155.5C 114.333,151.167 114.667,146.833 115,142.5C 115.278,141.584 115.778,140.918 116.5,140.5 Z"/></g>
<g><path style="opacity:1" fill="#f0f0f0" d="M 120.5,169.5 C 118.156,171.068 116.156,170.735 114.5,168.5C 113.41,169.391 113.41,170.391 114.5,171.5C 114,171.833 113.5,172.167 113,172.5C 108.245,169.893 105.912,165.893 106,160.5C 111.055,163.949 114.055,162.616 115,156.5C 116.297,161.09 118.13,165.423 120.5,169.5 Z"/></g>
<g><path style="opacity:1" fill="#efefef" d="M 107.5,155.5 C 109.199,155.34 110.866,155.506 112.5,156C 113.813,159.692 112.48,161.359 108.5,161C 106.365,159.444 106.032,157.611 107.5,155.5 Z"/></g>
<g><path style="opacity:1" fill="#111111" d="M 126.5,182.5 C 127.5,182.5 128.5,182.5 129.5,182.5C 128.754,186.31 127.754,186.31 126.5,182.5 Z"/></g>
<g><path style="opacity:1" fill="#5e5e5e" d="M 144.5,182.5 C 147.833,182.5 151.167,182.5 154.5,182.5C 154.842,183.338 155.508,183.672 156.5,183.5C 151.833,184.833 147.167,184.833 142.5,183.5C 143.492,183.672 144.158,183.338 144.5,182.5 Z"/></g>
<g><path style="opacity:1" fill="#1c1c1c" d="M 161.5,181.5 C 160.22,182.931 158.553,183.598 156.5,183.5C 155.508,183.672 154.842,183.338 154.5,182.5C 156.806,182.007 159.139,181.674 161.5,181.5 Z"/></g>
<g><path style="opacity:1" fill="#161616" d="M 169.5,182.5 C 170.5,182.5 171.5,182.5 172.5,182.5C 172.5,183.5 172.5,184.5 172.5,185.5C 171.5,185.5 170.5,185.5 169.5,185.5C 169.5,184.5 169.5,183.5 169.5,182.5 Z"/></g>
<g><path style="opacity:1" fill="#f8f8f8" d="M 114.5,186.5 C 112.173,186.665 110.007,187.331 108,188.5C 107.7,186.934 108.2,185.601 109.5,184.5C 112.984,181.748 114.65,182.415 114.5,186.5 Z"/></g>
<g><path style="opacity:1" fill="#767474" d="M 102.5,182.5 C 104.641,184.308 106.975,184.974 109.5,184.5C 108.2,185.601 107.7,186.934 108,188.5C 110.007,187.331 112.173,186.665 114.5,186.5C 114.932,187.71 115.599,188.71 116.5,189.5C 116.286,191.144 116.62,192.644 117.5,194C 116.167,194.333 114.833,194.667 113.5,195C 114.448,195.483 115.448,195.649 116.5,195.5C 116.5,195.833 116.5,196.167 116.5,196.5C 116.167,196.5 115.833,196.5 115.5,196.5C 110.768,195.29 106.934,192.623 104,188.5C 103.187,186.564 102.687,184.564 102.5,182.5 Z"/></g>
<g><path style="opacity:1" fill="#979797" d="M 110.5,176.5 C 112.986,177.462 112.986,178.295 110.5,179C 115.02,181.022 118.353,184.189 120.5,188.5C 121.833,191.167 121.833,193.833 120.5,196.5C 119.167,196.5 117.833,196.5 116.5,196.5C 116.5,196.167 116.5,195.833 116.5,195.5C 117.833,195.5 119.167,195.5 120.5,195.5C 120.662,193.473 120.495,191.473 120,189.5C 119.667,190.5 119.333,191.5 119,192.5C 118.764,190.881 117.931,189.881 116.5,189.5C 115.599,188.71 114.932,187.71 114.5,186.5C 114.65,182.415 112.984,181.748 109.5,184.5C 106.975,184.974 104.641,184.308 102.5,182.5C 102.5,181.5 102.5,180.5 102.5,179.5C 104.375,181.078 105.708,180.745 106.5,178.5C 107.833,177.833 109.167,177.167 110.5,176.5 Z"/></g>
<g><path style="opacity:1" fill="#f9f9f9" d="M 122.5,188.5 C 122.5,209.167 122.5,229.833 122.5,250.5C 140.5,250.5 158.5,250.5 176.5,250.5C 176.5,229.833 176.5,209.167 176.5,188.5C 177.768,190.905 178.435,193.572 178.5,196.5C 178.5,215.167 178.5,233.833 178.5,252.5C 159.167,252.5 139.833,252.5 120.5,252.5C 120.5,233.833 120.5,215.167 120.5,196.5C 121.833,193.833 121.833,191.167 120.5,188.5C 120.786,186.067 121.452,186.067 122.5,188.5 Z"/></g>
<g><path style="opacity:1" fill="#848282" d="M 188.5,178.5 C 188.833,178.5 189.167,178.5 189.5,178.5C 190.263,179.268 191.263,179.768 192.5,180C 191.5,180.333 190.5,180.667 189.5,181C 190.865,182.682 192.365,182.849 194,181.5C 194.21,183.058 194.71,184.391 195.5,185.5C 193.324,191.673 188.991,195.34 182.5,196.5C 182.36,194.876 183.027,193.71 184.5,193C 183.924,190.732 182.59,189.732 180.5,190C 181.167,190.667 181.833,191.333 182.5,192C 180.859,193.129 179.859,194.629 179.5,196.5C 179.167,196.5 178.833,196.5 178.5,196.5C 178.435,193.572 177.768,190.905 176.5,188.5C 177.462,186.014 178.295,186.014 179,188.5C 181.022,183.98 184.189,180.647 188.5,178.5 Z"/></g>
<g><path style="opacity:1" fill="#f8f8f8" d="M 184.5,183.5 C 186.289,185.651 187.622,188.151 188.5,191C 185.899,190.599 183.899,189.099 182.5,186.5C 183.193,185.482 183.859,184.482 184.5,183.5 Z"/></g>
<g><path style="opacity:1" fill="#e8e8e8" d="M 110.5,189.5 C 113.729,189.165 115.229,190.498 115,193.5C 113.184,192.671 111.351,191.837 109.5,191C 110.056,190.617 110.389,190.117 110.5,189.5 Z"/></g>
<g><path style="opacity:1" fill="#f0f0f0" d="M 116.5,189.5 C 117.931,189.881 118.764,190.881 119,192.5C 119.333,191.5 119.667,190.5 120,189.5C 120.495,191.473 120.662,193.473 120.5,195.5C 119.167,195.5 117.833,195.5 116.5,195.5C 115.448,195.649 114.448,195.483 113.5,195C 114.833,194.667 116.167,194.333 117.5,194C 116.62,192.644 116.286,191.144 116.5,189.5 Z"/></g>
<g><path style="opacity:1" fill="#878787" d="M 152.5,192.5 C 150.5,191.167 148.5,191.167 146.5,192.5C 145.883,192.389 145.383,192.056 145,191.5C 144.336,186.504 146.502,184.67 151.5,186C 151.167,186.333 150.833,186.667 150.5,187C 151.253,188.487 152.086,188.654 153,187.5C 155.081,189.557 154.914,191.223 152.5,192.5 Z"/></g>
<g><path style="opacity:1" fill="#dadada" d="M 182.5,196.5 C 181.5,196.5 180.5,196.5 179.5,196.5C 179.859,194.629 180.859,193.129 182.5,192C 181.833,191.333 181.167,190.667 180.5,190C 182.59,189.732 183.924,190.732 184.5,193C 183.027,193.71 182.36,194.876 182.5,196.5 Z"/></g>
<g><path style="opacity:1" fill="#555555" d="M 122.5,188.5 C 123.155,209.07 123.822,229.07 124.5,248.5C 141.167,248.5 157.833,248.5 174.5,248.5C 175.178,229.07 175.845,209.07 176.5,188.5C 176.5,209.167 176.5,229.833 176.5,250.5C 158.5,250.5 140.5,250.5 122.5,250.5C 122.5,229.833 122.5,209.167 122.5,188.5 Z"/></g>
<g><path style="opacity:1" fill="#fefefe" d="M 143.5,195.5 C 148.167,196.833 152.833,196.833 157.5,195.5C 163.461,194.79 168.961,192.79 174,189.5C 174.5,209.164 174.667,228.831 174.5,248.5C 157.833,248.5 141.167,248.5 124.5,248.5C 124.333,228.831 124.5,209.164 125,189.5C 130.623,193.208 136.789,195.208 143.5,195.5 Z"/></g>
<g><path style="opacity:1" fill="#5b5b5b" d="M 152.5,192.5 C 152.389,193.117 152.056,193.617 151.5,194C 152.793,194.49 154.127,194.657 155.5,194.5C 155.842,195.338 156.508,195.672 157.5,195.5C 152.833,196.833 148.167,196.833 143.5,195.5C 143.5,195.167 143.5,194.833 143.5,194.5C 144.873,194.657 146.207,194.49 147.5,194C 146.944,193.617 146.611,193.117 146.5,192.5C 148.5,191.167 150.5,191.167 152.5,192.5 Z"/></g>
<g><path style="opacity:1" fill="#4b2025" d="M 115.5,196.5 C 115.833,196.5 116.167,196.5 116.5,196.5C 117.833,196.5 119.167,196.5 120.5,196.5C 120.5,215.167 120.5,233.833 120.5,252.5C 139.833,252.5 159.167,252.5 178.5,252.5C 178.5,233.833 178.5,215.167 178.5,196.5C 178.833,196.5 179.167,196.5 179.5,196.5C 179.5,215.5 179.5,234.5 179.5,253.5C 159.5,253.5 139.5,253.5 119.5,253.5C 119.5,234.833 119.5,216.167 119.5,197.5C 117.901,197.768 116.568,197.434 115.5,196.5 Z"/></g>
</svg>
